<?xml version="1.0" encoding="UTF-8" standalone="no"?>
<svg width="25px" height="22px" viewBox="0 0 25 22" version="1.1" xmlns="http://www.w3.org/2000/svg" xmlns:xlink="http://www.w3.org/1999/xlink">
    <!-- Generator: Sketch 45.1 (43504) - http://www.bohemiancoding.com/sketch -->
    <title>Cart</title>
    <desc>Created with Sketch.</desc>
    <defs></defs>
    <g id="Symbols" stroke="none" stroke-width="1" fill="none" fill-rule="evenodd">
        <g id="mobile_header" transform="translate(-322.000000, -33.000000)" fill="#444444">
            <g id="Cart" transform="translate(322.000000, 33.000000)">
                <path d="M24.7593006,6.22782547 L24.7593006,3.86990781 L5.02276742,3.86990781 L3.38857036,0.939405315 C3.18017611,0.565227784 2.80832887,0.332864869 2.37988894,0.332864869 L0,0.332864869 L0,2.69078253 L1.66482369,2.69078253 L8.55914457,15.0542873 C8.76787171,15.4284648 9.16169024,15.6608277 9.58979727,15.6608277 L20.0431324,15.6608277 L20.0431324,13.3019113 L10.2828912,13.3019113 L8.96794351,10.9439937 L22.4013829,10.9439937 L22.4013829,8.58574313 L7.65332868,8.58574313 L6.33771515,6.22782547 L24.7593006,6.22782547 Z" id="Fill-1"></path>
                <path d="M13.0129225,19.7877662 C13.0129225,20.7644894 12.2206248,21.5561212 11.2445674,21.5561212 C10.2678442,21.5561212 9.47587952,20.7644894 9.47587952,19.7877662 C9.47587952,18.811043 10.2678442,18.0194112 11.2445674,18.0194112 C12.2206248,18.0194112 13.0129225,18.811043 13.0129225,19.7877662" id="Fill-4"></path>
                <path d="M20.0431324,19.7877662 C20.0431324,20.7644894 19.2511676,21.5561212 18.2747773,21.5561212 C17.298387,21.5561212 16.5060894,20.7644894 16.5060894,19.7877662 C16.5060894,18.811043 17.298387,18.0194112 18.2747773,18.0194112 C19.2511676,18.0194112 20.0431324,18.811043 20.0431324,19.7877662" id="Fill-6"></path>
            </g>
        </g>
    </g>
</svg>