<?xml version="1.0" encoding="UTF-8"?>
<svg xmlns="http://www.w3.org/2000/svg" xmlns:xlink="http://www.w3.org/1999/xlink" width="612pt" height="792pt" viewBox="0 0 612 792" version="1.1">
<g id="surface1">
<path style=" stroke:none;fill-rule:nonzero;fill:rgb(88.102722%,22.677612%,23.057556%);fill-opacity:1;" d="M 500 792 L 0 792 L 0 292 L 500 292 L 500 792 M 236.828125 621.625 C 236.207031 621.625 235.644531 621.972656 235.363281 622.523438 C 235.085938 623.074219 235.140625 623.738281 235.507812 624.234375 L 261.859375 659.933594 L 288.816406 696.457031 C 288.898438 696.566406 288.992188 696.664062 289.097656 696.75 L 300.996094 708.648438 C 301.300781 708.945312 301.703125 709.121094 302.132812 709.121094 C 302.652344 709.121094 303.144531 708.875 303.449219 708.457031 L 323.730469 680.980469 L 323.796875 680.980469 L 323.722656 681.082031 L 323.894531 681.082031 L 323.820312 681.183594 L 323.996094 681.183594 L 323.921875 681.28125 L 324.09375 681.28125 L 324.019531 681.382812 L 324.195312 681.382812 L 324.121094 681.480469 L 324.296875 681.480469 L 324.222656 681.582031 L 324.394531 681.582031 L 324.320312 681.683594 L 324.496094 681.683594 L 324.421875 681.78125 L 324.59375 681.78125 L 324.519531 681.882812 L 324.695312 681.882812 L 324.621094 681.980469 L 324.796875 681.980469 L 324.722656 682.082031 L 324.894531 682.082031 L 324.820312 682.183594 L 324.996094 682.183594 L 324.921875 682.28125 L 325.09375 682.28125 L 325.019531 682.382812 L 325.195312 682.382812 L 325.121094 682.480469 L 325.296875 682.480469 L 325.222656 682.582031 L 325.394531 682.582031 L 325.320312 682.683594 L 325.496094 682.683594 L 325.421875 682.78125 L 325.59375 682.78125 L 325.519531 682.882812 L 325.695312 682.882812 L 325.621094 682.980469 L 325.796875 682.980469 L 325.722656 683.082031 L 325.894531 683.082031 L 325.820312 683.183594 L 325.996094 683.183594 L 325.921875 683.28125 L 326.09375 683.28125 L 326.019531 683.382812 L 326.195312 683.382812 L 326.121094 683.480469 L 326.296875 683.480469 L 326.222656 683.582031 L 326.394531 683.582031 L 326.320312 683.683594 L 326.496094 683.683594 L 326.421875 683.78125 L 326.59375 683.78125 L 326.519531 683.882812 L 326.695312 683.882812 L 326.621094 683.980469 L 326.796875 683.980469 L 326.722656 684.082031 L 326.894531 684.082031 L 326.820312 684.183594 L 326.996094 684.183594 L 326.921875 684.28125 L 327.09375 684.28125 L 327.019531 684.382812 L 327.195312 684.382812 L 327.121094 684.480469 L 327.296875 684.480469 L 327.222656 684.582031 L 327.394531 684.582031 L 327.320312 684.683594 L 327.496094 684.683594 L 327.421875 684.78125 L 327.59375 684.78125 L 327.519531 684.882812 L 327.695312 684.882812 L 327.621094 684.980469 L 327.796875 684.980469 L 327.722656 685.082031 L 327.894531 685.082031 L 327.820312 685.183594 L 327.996094 685.183594 L 327.921875 685.28125 L 328.09375 685.28125 L 328.019531 685.382812 L 328.195312 685.382812 L 328.121094 685.480469 L 382.824219 685.480469 C 398.910156 685.480469 412 672.394531 412 656.308594 L 412 467.691406 C 412 462.277344 409.894531 457.191406 406.066406 453.367188 L 405.96875 453.265625 L 405.769531 453.066406 L 405.765625 453.066406 L 405.566406 452.867188 L 405.46875 452.765625 L 405.269531 452.566406 L 405.265625 452.566406 L 405.066406 452.367188 L 404.96875 452.265625 L 404.769531 452.066406 L 404.765625 452.066406 L 404.566406 451.867188 L 404.46875 451.765625 L 404.269531 451.566406 L 404.265625 451.566406 L 404.066406 451.367188 L 403.96875 451.265625 L 403.769531 451.066406 L 403.765625 451.066406 L 403.566406 450.867188 L 403.46875 450.765625 L 403.269531 450.566406 L 403.265625 450.566406 L 403.066406 450.367188 L 402.96875 450.265625 L 402.769531 450.066406 L 402.765625 450.066406 L 402.566406 449.867188 L 402.46875 449.765625 L 402.269531 449.566406 L 402.265625 449.566406 L 402.066406 449.367188 L 401.96875 449.265625 L 401.769531 449.066406 L 401.765625 449.066406 L 401.566406 448.867188 L 401.46875 448.765625 L 401.269531 448.566406 L 401.265625 448.566406 L 401.066406 448.367188 L 400.96875 448.265625 L 400.769531 448.066406 L 400.765625 448.066406 L 400.566406 447.867188 L 400.46875 447.765625 L 400.269531 447.566406 L 400.265625 447.566406 L 400.066406 447.367188 L 399.96875 447.265625 L 399.769531 447.066406 L 399.765625 447.066406 L 399.566406 446.867188 L 399.46875 446.765625 L 399.269531 446.566406 L 399.265625 446.566406 L 399.066406 446.367188 L 398.96875 446.265625 L 398.769531 446.066406 L 398.765625 446.066406 L 398.566406 445.867188 L 398.46875 445.765625 L 398.269531 445.566406 L 398.265625 445.566406 L 398.066406 445.367188 L 397.96875 445.265625 L 397.769531 445.066406 L 397.765625 445.066406 L 397.566406 444.867188 L 397.46875 444.765625 L 397.269531 444.566406 L 397.265625 444.566406 L 397.066406 444.367188 L 396.96875 444.265625 L 396.769531 444.066406 L 396.765625 444.066406 L 396.566406 443.867188 L 396.46875 443.765625 L 396.269531 443.566406 L 396.265625 443.566406 L 396.066406 443.367188 L 395.96875 443.265625 L 395.769531 443.066406 L 395.765625 443.066406 L 395.566406 442.867188 L 395.46875 442.765625 L 395.269531 442.566406 L 395.265625 442.566406 L 395.066406 442.367188 L 394.96875 442.265625 L 394.769531 442.066406 L 394.765625 442.066406 L 394.566406 441.867188 L 394.46875 441.765625 L 394.269531 441.566406 L 394.265625 441.566406 L 345.511719 392.8125 C 341.6875 388.984375 336.597656 386.878906 331.1875 386.878906 L 209.441406 386.878906 C 193.355469 386.878906 180.269531 399.964844 180.269531 416.050781 L 180.269531 426.84375 L 180.367188 426.84375 L 180.367188 426.945312 L 180.46875 426.945312 L 180.46875 427.042969 L 180.566406 427.042969 L 180.566406 427.144531 L 180.667969 427.144531 L 180.667969 427.242188 L 180.769531 427.242188 L 180.769531 427.34375 L 180.867188 427.34375 L 180.867188 427.445312 L 180.96875 427.445312 L 180.96875 427.542969 L 181.066406 427.542969 L 181.066406 427.644531 L 181.167969 427.644531 L 181.167969 427.742188 L 181.269531 427.742188 L 181.269531 427.84375 L 181.367188 427.84375 L 181.367188 427.945312 L 181.46875 427.945312 L 181.46875 428.042969 L 181.566406 428.042969 L 181.566406 428.144531 L 181.667969 428.144531 L 181.667969 428.242188 L 181.769531 428.242188 L 181.769531 428.34375 L 181.867188 428.34375 L 181.867188 428.445312 L 181.96875 428.445312 L 181.96875 428.542969 L 182.066406 428.542969 L 182.066406 428.644531 L 182.167969 428.644531 L 182.167969 428.742188 L 182.269531 428.742188 L 182.269531 428.84375 L 182.367188 428.84375 L 182.367188 428.945312 L 182.46875 428.945312 L 182.46875 429.042969 L 182.566406 429.042969 L 182.566406 429.144531 L 182.667969 429.144531 L 182.667969 429.242188 L 182.769531 429.242188 L 182.769531 429.34375 L 182.867188 429.34375 L 182.867188 429.445312 L 182.96875 429.445312 L 182.96875 429.542969 L 183.066406 429.542969 L 183.066406 429.644531 L 183.167969 429.644531 L 183.167969 429.742188 L 183.269531 429.742188 L 183.269531 429.84375 L 183.367188 429.84375 L 183.367188 429.945312 L 183.46875 429.945312 L 183.46875 430.042969 L 183.566406 430.042969 L 183.566406 430.144531 L 183.667969 430.144531 L 183.667969 430.242188 L 183.769531 430.242188 L 183.769531 430.34375 L 183.867188 430.34375 L 183.867188 430.445312 L 183.96875 430.445312 L 183.96875 430.542969 L 184.066406 430.542969 L 184.066406 430.644531 L 184.167969 430.644531 L 184.167969 430.742188 L 184.269531 430.742188 L 184.269531 430.84375 L 184.367188 430.84375 L 184.367188 430.945312 L 184.46875 430.945312 L 184.46875 431.042969 L 184.566406 431.042969 L 184.566406 431.144531 L 184.667969 431.144531 L 184.667969 431.242188 L 184.769531 431.242188 L 184.769531 431.34375 L 184.867188 431.34375 L 184.867188 431.445312 L 184.96875 431.445312 L 184.96875 431.542969 L 185.066406 431.542969 L 185.066406 431.644531 L 185.167969 431.644531 L 185.167969 431.742188 L 185.269531 431.742188 L 185.269531 431.84375 L 185.367188 431.84375 L 185.367188 431.945312 L 185.46875 431.945312 L 185.46875 432.042969 L 185.566406 432.042969 L 185.566406 432.144531 L 185.667969 432.144531 L 185.667969 432.242188 L 185.769531 432.242188 L 185.769531 432.34375 L 185.867188 432.34375 L 185.867188 432.445312 L 185.96875 432.445312 L 185.96875 432.542969 L 186.066406 432.542969 L 186.066406 432.644531 L 186.167969 432.644531 L 186.167969 432.742188 L 186.269531 432.742188 L 186.269531 432.84375 L 186.367188 432.84375 L 186.367188 432.945312 L 186.46875 432.945312 L 186.46875 433.042969 L 186.566406 433.042969 L 186.566406 433.050781 L 135.03125 433.050781 C 115.683594 433.050781 100 448.734375 100 468.082031 L 100 506.5625 C 100 516.261719 103.941406 525.035156 110.3125 531.378906 L 110.414062 531.480469 L 110.511719 531.582031 L 110.613281 531.679688 L 110.710938 531.78125 L 110.8125 531.878906 L 110.914062 531.980469 L 111.011719 532.082031 L 111.113281 532.179688 L 111.210938 532.28125 L 111.3125 532.378906 L 111.414062 532.480469 L 111.511719 532.582031 L 111.613281 532.679688 L 111.710938 532.78125 L 111.8125 532.878906 L 111.914062 532.980469 L 112.011719 533.082031 L 112.113281 533.179688 L 112.210938 533.28125 L 112.3125 533.378906 L 112.414062 533.480469 L 112.511719 533.582031 L 112.613281 533.679688 L 112.710938 533.78125 L 112.8125 533.878906 L 112.914062 533.980469 L 113.011719 534.082031 L 113.113281 534.179688 L 113.210938 534.28125 L 113.3125 534.378906 L 113.414062 534.480469 L 113.511719 534.582031 L 113.613281 534.679688 L 113.710938 534.78125 L 113.8125 534.878906 L 113.914062 534.980469 L 114.011719 535.082031 L 114.113281 535.179688 L 114.210938 535.28125 L 114.3125 535.378906 L 114.414062 535.480469 L 114.511719 535.582031 L 114.613281 535.679688 L 114.710938 535.78125 L 114.8125 535.878906 L 114.914062 535.980469 L 115.011719 536.082031 L 115.113281 536.179688 L 115.210938 536.28125 L 115.3125 536.378906 L 115.414062 536.480469 L 115.511719 536.582031 L 115.613281 536.679688 L 115.710938 536.78125 L 115.8125 536.878906 L 115.914062 536.980469 L 116.011719 537.082031 L 116.113281 537.179688 L 116.210938 537.28125 L 116.3125 537.378906 L 116.414062 537.480469 L 116.511719 537.582031 L 116.613281 537.679688 L 116.710938 537.78125 L 116.8125 537.878906 L 116.914062 537.980469 L 117.011719 538.082031 L 117.113281 538.179688 L 117.210938 538.28125 L 117.3125 538.378906 L 117.414062 538.480469 L 117.511719 538.582031 L 117.613281 538.679688 L 117.710938 538.78125 L 117.8125 538.878906 L 117.914062 538.980469 L 118.011719 539.082031 L 118.113281 539.179688 L 118.210938 539.28125 L 118.3125 539.378906 L 118.414062 539.480469 L 118.511719 539.582031 L 118.613281 539.679688 L 118.710938 539.78125 L 118.8125 539.878906 L 118.914062 539.980469 L 119.011719 540.082031 L 119.113281 540.179688 L 119.210938 540.28125 L 119.3125 540.378906 L 119.414062 540.480469 L 119.511719 540.582031 L 119.613281 540.679688 L 119.710938 540.78125 L 119.8125 540.878906 L 119.914062 540.980469 L 120.011719 541.082031 L 120.113281 541.179688 L 120.210938 541.28125 L 120.3125 541.378906 L 120.414062 541.480469 L 120.511719 541.582031 L 120.613281 541.679688 L 120.710938 541.78125 L 120.8125 541.878906 L 120.914062 541.980469 L 121.011719 542.082031 L 121.113281 542.179688 L 121.210938 542.28125 L 121.3125 542.378906 L 121.414062 542.480469 L 121.511719 542.582031 L 121.613281 542.679688 L 121.710938 542.78125 L 121.8125 542.878906 L 121.914062 542.980469 L 122.011719 543.082031 L 122.113281 543.179688 L 122.210938 543.28125 C 128.554688 549.648438 137.332031 553.59375 147.03125 553.59375 L 180.269531 553.59375 L 180.269531 644.308594 C 180.269531 652.378906 183.5625 659.691406 188.871094 664.976562 L 188.972656 665.074219 L 189.074219 665.179688 L 189.371094 665.476562 L 189.472656 665.574219 L 189.574219 665.675781 L 189.671875 665.777344 L 189.871094 665.976562 L 189.972656 666.074219 L 190.074219 666.175781 L 190.171875 666.277344 L 190.371094 666.476562 L 190.472656 666.574219 L 190.574219 666.675781 L 190.671875 666.777344 L 190.871094 666.976562 L 190.972656 667.074219 L 191.074219 667.175781 L 191.171875 667.277344 L 191.371094 667.476562 L 191.472656 667.574219 L 191.574219 667.679688 L 191.871094 667.976562 L 191.972656 668.074219 L 192.074219 668.175781 L 192.171875 668.277344 L 192.371094 668.476562 L 192.472656 668.574219 L 192.574219 668.679688 L 192.871094 668.976562 L 192.972656 669.074219 L 193.074219 669.175781 L 193.171875 669.277344 L 193.371094 669.476562 L 193.472656 669.574219 L 193.574219 669.675781 L 193.671875 669.777344 L 193.871094 669.976562 L 193.972656 670.074219 L 194.074219 670.175781 L 194.171875 670.277344 L 194.371094 670.476562 L 194.472656 670.574219 L 194.574219 670.675781 L 194.671875 670.777344 L 194.871094 670.976562 L 194.972656 671.074219 L 195.074219 671.179688 L 195.371094 671.476562 L 195.472656 671.574219 L 195.574219 671.675781 L 195.671875 671.777344 L 195.871094 671.976562 L 195.972656 672.074219 L 196.074219 672.175781 L 196.171875 672.277344 L 196.371094 672.476562 L 196.472656 672.574219 L 196.574219 672.675781 L 196.671875 672.777344 L 196.871094 672.976562 L 196.972656 673.074219 L 197.074219 673.175781 L 197.171875 673.277344 L 197.371094 673.476562 L 197.472656 673.574219 L 197.574219 673.675781 L 197.671875 673.777344 L 197.871094 673.976562 L 197.972656 674.074219 L 198.074219 674.175781 L 198.171875 674.277344 L 198.371094 674.476562 L 198.472656 674.574219 L 198.574219 674.679688 L 198.871094 674.976562 L 198.972656 675.074219 L 199.074219 675.175781 L 199.171875 675.277344 L 199.371094 675.476562 L 199.472656 675.574219 L 199.574219 675.675781 L 199.671875 675.777344 L 199.871094 675.976562 L 199.972656 676.074219 L 200.074219 676.175781 L 200.171875 676.277344 L 200.371094 676.476562 L 200.472656 676.574219 L 200.574219 676.675781 L 200.671875 676.777344 L 200.773438 676.878906 C 206.058594 682.1875 213.371094 685.480469 221.441406 685.480469 L 276.144531 685.480469 L 265.984375 671.71875 L 265.960938 671.71875 L 265.886719 671.617188 L 265.859375 671.617188 L 265.785156 671.515625 L 265.761719 671.515625 L 265.6875 671.417969 L 265.660156 671.417969 L 265.585938 671.316406 L 265.558594 671.316406 L 265.484375 671.21875 L 265.460938 671.21875 L 265.386719 671.117188 L 265.359375 671.117188 L 265.285156 671.019531 L 265.261719 671.019531 L 265.1875 670.917969 L 265.160156 670.917969 L 265.085938 670.816406 L 265.058594 670.816406 L 264.984375 670.71875 L 264.960938 670.71875 L 264.886719 670.617188 L 264.859375 670.617188 L 264.785156 670.519531 L 264.761719 670.519531 L 264.6875 670.417969 L 264.660156 670.417969 L 264.585938 670.316406 L 264.558594 670.316406 L 264.484375 670.21875 L 264.460938 670.21875 L 264.386719 670.117188 L 264.359375 670.117188 L 264.285156 670.015625 L 264.261719 670.015625 L 264.1875 669.917969 L 264.160156 669.917969 L 264.085938 669.816406 L 264.058594 669.816406 L 263.984375 669.71875 L 263.960938 669.71875 L 263.886719 669.617188 L 263.859375 669.617188 L 263.785156 669.519531 L 263.761719 669.519531 L 263.6875 669.417969 L 263.660156 669.417969 L 263.585938 669.316406 L 263.558594 669.316406 L 263.484375 669.21875 L 263.460938 669.21875 L 263.386719 669.117188 L 263.359375 669.117188 L 263.285156 669.015625 L 263.261719 669.015625 L 263.1875 668.917969 L 263.160156 668.917969 L 263.085938 668.816406 L 263.058594 668.816406 L 262.984375 668.71875 L 262.960938 668.71875 L 262.886719 668.617188 L 262.859375 668.617188 L 262.785156 668.519531 L 262.761719 668.519531 L 262.6875 668.417969 L 262.660156 668.417969 L 262.585938 668.316406 L 262.558594 668.316406 L 262.484375 668.21875 L 262.460938 668.21875 L 262.386719 668.117188 L 262.359375 668.117188 L 262.285156 668.015625 L 262.261719 668.015625 L 262.1875 667.917969 L 262.160156 667.917969 L 262.085938 667.816406 L 262.058594 667.816406 L 261.984375 667.71875 L 261.960938 667.71875 L 261.886719 667.617188 L 261.859375 667.617188 L 261.785156 667.519531 L 261.761719 667.519531 L 261.6875 667.417969 L 261.660156 667.417969 L 261.585938 667.316406 L 261.558594 667.316406 L 261.484375 667.21875 L 261.460938 667.21875 L 261.386719 667.117188 L 261.359375 667.117188 L 261.285156 667.019531 L 261.261719 667.019531 L 261.1875 666.917969 L 261.160156 666.917969 L 261.085938 666.816406 L 261.058594 666.816406 L 260.984375 666.71875 L 260.960938 666.71875 L 260.886719 666.617188 L 260.859375 666.617188 L 260.785156 666.515625 L 260.761719 666.515625 L 260.6875 666.417969 L 260.660156 666.417969 L 260.585938 666.316406 L 260.558594 666.316406 L 260.484375 666.21875 L 260.460938 666.21875 L 260.386719 666.117188 L 260.359375 666.117188 L 260.285156 666.019531 L 260.261719 666.019531 L 260.1875 665.917969 L 260.160156 665.917969 L 260.085938 665.816406 L 260.058594 665.816406 L 259.984375 665.71875 L 259.960938 665.71875 L 259.886719 665.617188 L 259.859375 665.617188 L 259.785156 665.515625 L 259.761719 665.515625 L 259.6875 665.417969 L 259.660156 665.417969 L 259.585938 665.316406 L 259.558594 665.316406 L 259.484375 665.21875 L 259.460938 665.21875 L 259.386719 665.117188 L 259.359375 665.117188 L 259.285156 665.019531 L 259.261719 665.019531 L 259.1875 664.917969 L 259.160156 664.917969 L 259.085938 664.816406 L 259.058594 664.816406 L 258.984375 664.71875 L 258.960938 664.71875 L 258.886719 664.617188 L 258.859375 664.617188 L 258.785156 664.515625 L 258.761719 664.515625 L 258.6875 664.417969 L 258.660156 664.417969 L 258.585938 664.316406 L 258.558594 664.316406 L 258.484375 664.21875 L 258.460938 664.21875 L 258.386719 664.117188 L 258.359375 664.117188 L 258.285156 664.019531 L 258.261719 664.019531 L 258.1875 663.917969 L 258.160156 663.917969 L 258.085938 663.816406 L 258.058594 663.816406 L 257.984375 663.71875 L 257.960938 663.71875 L 257.886719 663.617188 L 257.859375 663.617188 L 257.785156 663.519531 L 257.761719 663.519531 L 257.6875 663.417969 L 257.660156 663.417969 L 257.585938 663.316406 L 257.558594 663.316406 L 257.484375 663.21875 L 257.460938 663.21875 L 257.386719 663.117188 L 257.359375 663.117188 L 257.285156 663.015625 L 257.261719 663.015625 L 257.1875 662.917969 L 257.160156 662.917969 L 257.085938 662.816406 L 257.058594 662.816406 L 256.984375 662.71875 L 256.960938 662.71875 L 256.886719 662.617188 L 256.859375 662.617188 L 256.785156 662.519531 L 256.761719 662.519531 L 256.6875 662.417969 L 256.660156 662.417969 L 256.585938 662.316406 L 256.558594 662.316406 L 256.484375 662.21875 L 256.460938 662.21875 L 256.386719 662.117188 L 256.359375 662.117188 L 256.285156 662.015625 L 256.261719 662.015625 L 256.1875 661.917969 L 256.160156 661.917969 L 256.085938 661.816406 L 256.058594 661.816406 L 255.984375 661.71875 L 255.960938 661.71875 L 255.886719 661.617188 L 255.859375 661.617188 L 255.785156 661.519531 L 255.761719 661.519531 L 255.6875 661.417969 L 255.660156 661.417969 L 255.585938 661.316406 L 255.558594 661.316406 L 255.484375 661.21875 L 255.460938 661.21875 L 255.386719 661.117188 L 255.359375 661.117188 L 255.285156 661.015625 L 255.261719 661.015625 L 255.1875 660.917969 L 255.160156 660.917969 L 255.085938 660.816406 L 255.058594 660.816406 L 254.984375 660.71875 L 254.960938 660.71875 L 254.886719 660.617188 L 254.859375 660.617188 L 254.785156 660.519531 L 254.761719 660.519531 L 254.6875 660.417969 L 254.660156 660.417969 L 254.585938 660.316406 L 254.558594 660.316406 L 254.484375 660.21875 L 254.460938 660.21875 L 254.386719 660.117188 L 254.359375 660.117188 L 254.285156 660.019531 L 254.261719 660.019531 L 254.1875 659.917969 L 254.160156 659.917969 L 254.085938 659.816406 L 254.058594 659.816406 L 253.984375 659.71875 L 209.441406 659.71875 C 208.382812 659.71875 207.34375 659.609375 206.34375 659.40625 C 206.140625 658.402344 206.03125 657.367188 206.03125 656.308594 L 206.03125 559.796875 L 205.933594 559.796875 L 205.933594 559.699219 L 205.832031 559.699219 L 205.832031 559.597656 L 205.730469 559.597656 L 205.730469 559.496094 L 205.632812 559.496094 L 205.632812 559.398438 L 205.53125 559.398438 L 205.53125 559.296875 L 205.433594 559.296875 L 205.433594 559.199219 L 205.332031 559.199219 L 205.332031 559.097656 L 205.230469 559.097656 L 205.230469 558.996094 L 205.132812 558.996094 L 205.132812 558.898438 L 205.03125 558.898438 L 205.03125 558.796875 L 204.933594 558.796875 L 204.933594 558.699219 L 204.832031 558.699219 L 204.832031 558.597656 L 204.730469 558.597656 L 204.730469 558.496094 L 204.632812 558.496094 L 204.632812 558.398438 L 204.53125 558.398438 L 204.53125 558.296875 L 204.433594 558.296875 L 204.433594 558.199219 L 204.332031 558.199219 L 204.332031 558.097656 L 204.230469 558.097656 L 204.230469 557.996094 L 204.132812 557.996094 L 204.132812 557.898438 L 204.03125 557.898438 L 204.03125 557.796875 L 203.933594 557.796875 L 203.933594 557.699219 L 203.832031 557.699219 L 203.832031 557.597656 L 203.730469 557.597656 L 203.730469 557.496094 L 203.632812 557.496094 L 203.632812 557.398438 L 203.53125 557.398438 L 203.53125 557.296875 L 203.433594 557.296875 L 203.433594 557.199219 L 203.332031 557.199219 L 203.332031 557.097656 L 203.230469 557.097656 L 203.230469 556.996094 L 203.132812 556.996094 L 203.132812 556.898438 L 203.03125 556.898438 L 203.03125 556.796875 L 202.933594 556.796875 L 202.933594 556.699219 L 202.832031 556.699219 L 202.832031 556.597656 L 202.730469 556.597656 L 202.730469 556.496094 L 202.632812 556.496094 L 202.632812 556.398438 L 202.53125 556.398438 L 202.53125 556.296875 L 202.433594 556.296875 L 202.433594 556.199219 L 202.332031 556.199219 L 202.332031 556.097656 L 202.230469 556.097656 L 202.230469 555.996094 L 202.132812 555.996094 L 202.132812 555.898438 L 202.03125 555.898438 L 202.03125 555.796875 L 201.933594 555.796875 L 201.933594 555.699219 L 201.832031 555.699219 L 201.832031 555.597656 L 201.730469 555.597656 L 201.730469 555.496094 L 201.632812 555.496094 L 201.632812 555.398438 L 201.53125 555.398438 L 201.53125 555.296875 L 201.433594 555.296875 L 201.433594 555.199219 L 201.332031 555.199219 L 201.332031 555.097656 L 201.230469 555.097656 L 201.230469 554.996094 L 201.132812 554.996094 L 201.132812 554.898438 L 201.03125 554.898438 L 201.03125 554.796875 L 200.933594 554.796875 L 200.933594 554.699219 L 200.832031 554.699219 L 200.832031 554.597656 L 200.730469 554.597656 L 200.730469 554.496094 L 200.632812 554.496094 L 200.632812 554.398438 L 200.53125 554.398438 L 200.53125 554.296875 L 200.433594 554.296875 L 200.433594 554.199219 L 200.332031 554.199219 L 200.332031 554.097656 L 200.230469 554.097656 L 200.230469 553.996094 L 200.132812 553.996094 L 200.132812 553.898438 L 200.03125 553.898438 L 200.03125 553.796875 L 199.933594 553.796875 L 199.933594 553.699219 L 199.832031 553.699219 L 199.832031 553.597656 L 199.730469 553.597656 L 199.730469 553.59375 L 253.21875 553.59375 C 272.566406 553.59375 288.25 537.910156 288.25 518.5625 L 288.25 480.082031 C 288.25 470.382812 284.304688 461.605469 277.9375 455.261719 L 266.035156 443.359375 C 259.695312 436.992188 250.914062 433.050781 241.21875 433.050781 L 206.03125 433.050781 L 206.03125 428.050781 C 206.03125 419.554688 212.945312 412.644531 221.441406 412.644531 L 334.285156 412.644531 L 334.285156 440.285156 C 334.285156 444.421875 335.980469 448.167969 338.710938 450.871094 L 340.710938 452.871094 L 340.808594 452.972656 L 340.910156 453.070312 L 343.210938 455.371094 L 343.308594 455.472656 L 343.410156 455.570312 L 344.210938 456.371094 L 344.308594 456.472656 L 344.410156 456.570312 L 346.710938 458.871094 L 346.808594 458.972656 L 346.910156 459.070312 L 347.710938 459.871094 L 347.808594 459.972656 L 347.910156 460.070312 L 350.210938 462.371094 L 350.308594 462.472656 L 350.410156 462.570312 L 350.609375 462.769531 C 353.3125 465.5 357.058594 467.195312 361.195312 467.195312 L 386.234375 467.195312 C 386.234375 472.96875 386.234375 479.882812 386.234375 485.734375 C 386.234375 492.835938 386.234375 498.375 386.234375 498.375 L 386.234375 644.308594 C 386.234375 652.804688 379.324219 659.71875 370.824219 659.71875 L 339.425781 659.71875 L 356.757812 636.234375 C 357.125 635.738281 357.183594 635.074219 356.902344 634.523438 C 356.820312 634.359375 356.703125 634.21875 356.574219 634.09375 L 356.472656 633.992188 L 356.371094 633.894531 L 356.273438 633.792969 L 355.972656 633.492188 L 355.871094 633.394531 L 355.773438 633.292969 L 355.472656 632.992188 L 355.371094 632.894531 L 355.273438 632.792969 L 354.972656 632.492188 L 354.871094 632.394531 L 354.773438 632.292969 L 354.472656 631.992188 L 354.371094 631.894531 L 354.273438 631.792969 L 353.972656 631.492188 L 353.871094 631.394531 L 353.773438 631.292969 L 353.472656 630.992188 L 353.371094 630.894531 L 353.273438 630.792969 L 352.972656 630.492188 L 352.871094 630.394531 L 352.773438 630.292969 L 352.472656 629.992188 L 352.371094 629.894531 L 352.273438 629.792969 L 351.972656 629.492188 L 351.871094 629.394531 L 351.773438 629.292969 L 351.472656 628.992188 L 351.371094 628.894531 L 351.273438 628.792969 L 350.972656 628.492188 L 350.871094 628.394531 L 350.773438 628.292969 L 350.472656 627.992188 L 350.371094 627.894531 L 350.273438 627.792969 L 349.972656 627.492188 L 349.871094 627.394531 L 349.773438 627.292969 L 349.472656 626.992188 L 349.371094 626.894531 L 349.273438 626.792969 L 348.972656 626.492188 L 348.871094 626.394531 L 348.773438 626.292969 L 348.472656 625.992188 L 348.371094 625.894531 L 348.273438 625.792969 L 347.972656 625.492188 L 347.871094 625.394531 L 347.773438 625.292969 L 347.472656 624.992188 L 347.371094 624.894531 L 347.273438 624.792969 L 346.972656 624.492188 L 346.871094 624.394531 L 346.773438 624.292969 L 346.472656 623.992188 L 346.371094 623.894531 L 346.273438 623.792969 L 345.972656 623.492188 L 345.871094 623.394531 L 345.773438 623.292969 L 345.472656 622.992188 L 345.371094 622.894531 L 345.273438 622.792969 L 344.972656 622.492188 L 344.871094 622.394531 L 344.773438 622.292969 L 344.671875 622.191406 C 344.367188 621.839844 343.921875 621.625 343.441406 621.625 L 328.386719 621.625 L 328.386719 570.894531 C 328.386719 570.414062 328.179688 569.988281 327.851562 569.6875 L 327.652344 569.488281 L 327.550781 569.390625 L 327.453125 569.289062 L 327.152344 568.988281 L 327.050781 568.890625 L 326.953125 568.789062 L 326.652344 568.488281 L 326.550781 568.390625 L 326.453125 568.289062 L 326.152344 567.988281 L 326.050781 567.890625 L 325.953125 567.789062 L 325.652344 567.488281 L 325.550781 567.390625 L 325.453125 567.289062 L 325.152344 566.988281 L 325.050781 566.890625 L 324.953125 566.789062 L 324.652344 566.488281 L 324.550781 566.390625 L 324.453125 566.289062 L 324.152344 565.988281 L 324.050781 565.890625 L 323.953125 565.789062 L 323.652344 565.488281 L 323.550781 565.390625 L 323.453125 565.289062 L 323.152344 564.988281 L 323.050781 564.890625 L 322.953125 564.789062 L 322.652344 564.488281 L 322.550781 564.390625 L 322.453125 564.289062 L 322.152344 563.988281 L 322.050781 563.890625 L 321.953125 563.789062 L 321.652344 563.488281 L 321.550781 563.390625 L 321.453125 563.289062 L 321.152344 562.988281 L 321.050781 562.890625 L 320.953125 562.789062 L 320.652344 562.488281 L 320.550781 562.390625 L 320.453125 562.289062 L 320.152344 561.988281 L 320.050781 561.890625 L 319.953125 561.789062 L 319.652344 561.488281 L 319.550781 561.390625 L 319.453125 561.289062 L 319.152344 560.988281 L 319.050781 560.890625 L 318.953125 560.789062 L 318.652344 560.488281 L 318.550781 560.390625 L 318.453125 560.289062 L 318.152344 559.988281 L 318.050781 559.890625 L 317.953125 559.789062 L 317.652344 559.488281 L 317.550781 559.390625 L 317.453125 559.289062 L 317.152344 558.988281 L 317.050781 558.890625 L 316.953125 558.789062 L 316.652344 558.488281 L 316.550781 558.390625 L 316.453125 558.289062 L 316.152344 557.988281 L 316.050781 557.890625 L 315.953125 557.789062 C 315.652344 557.464844 315.226562 557.253906 314.75 557.253906 L 265.519531 557.253906 C 264.613281 557.253906 263.882812 557.988281 263.882812 558.890625 L 263.882812 621.625 L 236.828125 621.625 M 183.421875 517.742188 L 183.421875 512.632812 L 183.429688 512.632812 L 183.429688 512.714844 L 183.53125 512.730469 L 183.53125 512.816406 L 183.632812 512.832031 L 183.632812 512.914062 L 183.730469 512.933594 L 183.730469 513.015625 L 183.832031 513.03125 L 183.832031 513.117188 L 183.929688 513.132812 L 183.929688 513.214844 L 184.03125 513.230469 L 184.03125 513.316406 L 184.132812 513.332031 L 184.132812 513.414062 L 184.230469 513.433594 L 184.230469 513.515625 L 184.332031 513.53125 L 184.332031 513.617188 L 184.429688 513.632812 L 184.429688 513.714844 L 184.53125 513.730469 L 184.53125 513.816406 L 184.632812 513.832031 L 184.632812 513.914062 L 184.730469 513.933594 L 184.730469 514.015625 L 184.832031 514.03125 L 184.832031 514.117188 L 184.929688 514.132812 L 184.929688 514.214844 L 185.03125 514.230469 L 185.03125 514.316406 L 185.132812 514.332031 L 185.132812 514.414062 L 185.230469 514.433594 L 185.230469 514.515625 L 185.332031 514.53125 L 185.332031 514.617188 L 185.429688 514.632812 L 185.429688 514.714844 L 185.53125 514.730469 L 185.53125 514.816406 L 185.632812 514.832031 L 185.632812 514.914062 L 185.730469 514.933594 L 185.730469 515.015625 L 185.832031 515.03125 L 185.832031 515.117188 L 185.929688 515.132812 L 185.929688 515.214844 L 186.03125 515.230469 L 186.03125 515.316406 L 186.132812 515.332031 L 186.132812 515.414062 L 186.230469 515.433594 L 186.230469 515.515625 L 186.332031 515.53125 L 186.332031 515.617188 L 186.429688 515.632812 L 186.429688 515.714844 L 186.53125 515.730469 L 186.53125 515.816406 L 186.632812 515.832031 L 186.632812 515.914062 L 186.730469 515.933594 L 186.730469 516.015625 L 186.832031 516.03125 L 186.832031 516.117188 L 186.929688 516.132812 L 186.929688 516.214844 L 187.03125 516.230469 L 187.03125 516.316406 L 187.132812 516.332031 L 187.132812 516.414062 L 187.230469 516.433594 L 187.230469 516.515625 L 187.332031 516.53125 L 187.332031 516.617188 L 187.429688 516.632812 L 187.429688 516.714844 L 187.53125 516.730469 L 187.53125 516.816406 L 187.632812 516.832031 L 187.632812 516.914062 L 187.730469 516.933594 L 187.730469 517.015625 L 187.832031 517.03125 L 187.832031 517.117188 L 187.929688 517.132812 L 187.929688 517.214844 L 188.03125 517.230469 L 188.03125 517.292969 C 186.558594 517.542969 185.019531 517.695312 183.421875 517.742188 M 143.570312 494.726562 L 143.570312 489.699219 L 143.617188 489.710938 L 143.617188 489.78125 L 143.71875 489.8125 L 143.71875 489.882812 L 143.816406 489.910156 L 143.816406 489.984375 L 143.917969 490.011719 L 143.917969 490.082031 L 144.015625 490.109375 L 144.015625 490.183594 L 144.117188 490.210938 L 144.117188 490.28125 L 144.21875 490.3125 L 144.21875 490.382812 L 144.316406 490.410156 L 144.316406 490.484375 L 144.417969 490.511719 L 144.417969 490.582031 L 144.515625 490.609375 L 144.515625 490.683594 L 144.617188 490.710938 L 144.617188 490.78125 L 144.71875 490.8125 L 144.71875 490.882812 L 144.816406 490.910156 L 144.816406 490.984375 L 144.917969 491.011719 L 144.917969 491.082031 L 145.015625 491.109375 L 145.015625 491.183594 L 145.117188 491.210938 L 145.117188 491.28125 L 145.21875 491.3125 L 145.21875 491.382812 L 145.316406 491.410156 L 145.316406 491.484375 L 145.417969 491.511719 L 145.417969 491.582031 L 145.515625 491.609375 L 145.515625 491.683594 L 145.617188 491.710938 L 145.617188 491.78125 L 145.71875 491.8125 L 145.71875 491.882812 L 145.816406 491.910156 L 145.816406 491.984375 L 145.917969 492.011719 L 145.917969 492.082031 L 146.015625 492.109375 L 146.015625 492.183594 L 146.117188 492.210938 L 146.117188 492.28125 L 146.21875 492.3125 L 146.21875 492.382812 L 146.316406 492.410156 L 146.316406 492.484375 L 146.417969 492.511719 L 146.417969 492.582031 L 146.515625 492.609375 L 146.515625 492.683594 L 146.617188 492.710938 L 146.617188 492.78125 L 146.71875 492.8125 L 146.71875 492.882812 L 146.816406 492.910156 L 146.816406 492.984375 L 146.917969 493.011719 L 146.917969 493.082031 L 147.015625 493.109375 L 147.015625 493.183594 L 147.117188 493.210938 L 147.117188 493.28125 L 147.21875 493.3125 L 147.21875 493.382812 L 147.316406 493.410156 L 147.316406 493.484375 L 147.417969 493.511719 L 147.417969 493.582031 L 147.515625 493.609375 L 147.515625 493.683594 L 147.617188 493.710938 L 147.617188 493.78125 L 147.71875 493.8125 L 147.71875 493.882812 L 147.816406 493.910156 L 147.816406 493.984375 L 147.917969 494.011719 L 147.917969 494.082031 L 148.015625 494.109375 L 148.015625 494.183594 L 148.085938 494.203125 C 146.644531 494.535156 145.140625 494.71875 143.570312 494.726562 M 236.453125 491.507812 L 231.34375 491.507812 L 231.34375 486.355469 L 231.355469 486.355469 L 231.355469 486.457031 L 231.453125 486.457031 L 231.453125 486.558594 L 231.554688 486.558594 L 231.554688 486.65625 L 231.652344 486.65625 L 231.652344 486.757812 L 231.753906 486.757812 L 231.753906 486.855469 L 231.855469 486.855469 L 231.855469 486.957031 L 231.953125 486.957031 L 231.953125 487.058594 L 232.054688 487.058594 L 232.054688 487.15625 L 232.152344 487.15625 L 232.152344 487.257812 L 232.253906 487.257812 L 232.253906 487.355469 L 232.355469 487.355469 L 232.355469 487.457031 L 232.453125 487.457031 L 232.453125 487.558594 L 232.554688 487.558594 L 232.554688 487.65625 L 232.652344 487.65625 L 232.652344 487.757812 L 232.753906 487.757812 L 232.753906 487.855469 L 232.855469 487.855469 L 232.855469 487.957031 L 232.953125 487.957031 L 232.953125 488.058594 L 233.054688 488.058594 L 233.054688 488.15625 L 233.152344 488.15625 L 233.152344 488.257812 L 233.253906 488.257812 L 233.253906 488.355469 L 233.355469 488.355469 L 233.355469 488.457031 L 233.453125 488.457031 L 233.453125 488.558594 L 233.554688 488.558594 L 233.554688 488.65625 L 233.652344 488.65625 L 233.652344 488.757812 L 233.753906 488.757812 L 233.753906 488.855469 L 233.855469 488.855469 L 233.855469 488.957031 L 233.953125 488.957031 L 233.953125 489.058594 L 234.054688 489.058594 L 234.054688 489.15625 L 234.152344 489.15625 L 234.152344 489.257812 L 234.253906 489.257812 L 234.253906 489.355469 L 234.355469 489.355469 L 234.355469 489.457031 L 234.453125 489.457031 L 234.453125 489.558594 L 234.554688 489.558594 L 234.554688 489.65625 L 234.652344 489.65625 L 234.652344 489.757812 L 234.753906 489.757812 L 234.753906 489.855469 L 234.855469 489.855469 L 234.855469 489.957031 L 234.953125 489.957031 L 234.953125 490.058594 L 235.054688 490.058594 L 235.054688 490.15625 L 235.152344 490.15625 L 235.152344 490.257812 L 235.253906 490.257812 L 235.253906 490.355469 L 235.355469 490.355469 L 235.355469 490.457031 L 235.453125 490.457031 L 235.453125 490.558594 L 235.554688 490.558594 L 235.554688 490.65625 L 235.652344 490.65625 L 235.652344 490.757812 L 235.753906 490.757812 L 235.753906 490.855469 L 235.855469 490.855469 L 235.855469 490.957031 L 235.953125 490.957031 L 235.953125 491.058594 L 236.054688 491.058594 L 236.054688 491.15625 L 236.152344 491.15625 L 236.152344 491.257812 L 236.253906 491.257812 L 236.253906 491.355469 L 236.355469 491.355469 L 236.355469 491.457031 L 236.453125 491.457031 L 236.453125 491.507812 M 208.871094 482.980469 C 208.398438 482.277344 207.898438 481.617188 207.339844 481.035156 L 195.4375 469.132812 C 195.164062 468.839844 194.867188 468.570312 194.570312 468.308594 C 195.105469 468.296875 195.640625 468.289062 196.183594 468.289062 C 200.054688 468.289062 203.351562 468.8125 206.183594 469.847656 C 207.699219 473.421875 208.640625 477.765625 208.871094 482.980469 M 160.929688 477.59375 L 160.265625 476.929688 L 160.164062 476.832031 L 160.066406 476.730469 L 158.765625 475.429688 L 158.664062 475.332031 L 158.566406 475.230469 L 157.765625 474.429688 L 157.664062 474.332031 L 157.566406 474.230469 L 156.765625 473.429688 L 156.664062 473.332031 L 156.566406 473.230469 L 155.265625 471.929688 L 155.164062 471.832031 L 155.066406 471.730469 L 154.265625 470.929688 L 154.164062 470.832031 L 154.066406 470.730469 L 153.265625 469.929688 L 153.164062 469.832031 L 153.066406 469.730469 L 151.738281 468.402344 C 153 468.328125 154.351562 468.289062 155.816406 468.289062 C 157.476562 468.289062 159 468.441406 160.414062 468.710938 C 160.839844 470.511719 161.074219 472.476562 161.074219 474.570312 C 161.074219 475.617188 161.015625 476.617188 160.929688 477.59375 "/>
<path style=" stroke:none;fill-rule:nonzero;fill:rgb(30.984497%,8.247375%,9.721375%);fill-opacity:1;" d="M 302.132812 709.121094 C 301.703125 709.121094 301.300781 708.945312 300.996094 708.648438 L 289.097656 696.75 C 288.992188 696.664062 288.898438 696.566406 288.816406 696.457031 L 261.859375 659.933594 L 235.507812 624.234375 C 235.140625 623.738281 235.085938 623.074219 235.363281 622.523438 C 235.644531 621.972656 236.207031 621.625 236.828125 621.625 L 263.882812 621.625 L 263.882812 558.890625 C 263.882812 557.988281 264.613281 557.253906 265.519531 557.253906 L 314.75 557.253906 C 315.226562 557.253906 315.652344 557.464844 315.953125 557.789062 L 316.050781 557.890625 L 316.152344 557.988281 L 316.453125 558.289062 L 316.550781 558.390625 L 316.652344 558.488281 L 316.953125 558.789062 L 317.050781 558.890625 L 317.152344 558.988281 L 317.453125 559.289062 L 317.550781 559.390625 L 317.652344 559.488281 L 317.953125 559.789062 L 318.050781 559.890625 L 318.152344 559.988281 L 318.453125 560.289062 L 318.550781 560.390625 L 318.652344 560.488281 L 318.953125 560.789062 L 319.050781 560.890625 L 319.152344 560.988281 L 319.453125 561.289062 L 319.550781 561.390625 L 319.652344 561.488281 L 319.953125 561.789062 L 320.050781 561.890625 L 320.152344 561.988281 L 320.453125 562.289062 L 320.550781 562.390625 L 320.652344 562.488281 L 320.953125 562.789062 L 321.050781 562.890625 L 321.152344 562.988281 L 321.453125 563.289062 L 321.550781 563.390625 L 321.652344 563.488281 L 321.953125 563.789062 L 322.050781 563.890625 L 322.152344 563.988281 L 322.453125 564.289062 L 322.550781 564.390625 L 322.652344 564.488281 L 322.953125 564.789062 L 323.050781 564.890625 L 323.152344 564.988281 L 323.453125 565.289062 L 323.550781 565.390625 L 323.652344 565.488281 L 323.953125 565.789062 L 324.050781 565.890625 L 324.152344 565.988281 L 324.453125 566.289062 L 324.550781 566.390625 L 324.652344 566.488281 L 324.953125 566.789062 L 325.050781 566.890625 L 325.152344 566.988281 L 325.453125 567.289062 L 325.550781 567.390625 L 325.652344 567.488281 L 325.953125 567.789062 L 326.050781 567.890625 L 326.152344 567.988281 L 326.453125 568.289062 L 326.550781 568.390625 L 326.652344 568.488281 L 326.953125 568.789062 L 327.050781 568.890625 L 327.152344 568.988281 L 327.453125 569.289062 L 327.550781 569.390625 L 327.652344 569.488281 L 327.851562 569.6875 C 328.179688 569.988281 328.386719 570.414062 328.386719 570.894531 L 328.386719 621.625 L 343.441406 621.625 C 343.921875 621.625 344.367188 621.839844 344.671875 622.191406 L 344.773438 622.292969 L 344.871094 622.394531 L 344.972656 622.492188 L 345.273438 622.792969 L 345.371094 622.894531 L 345.472656 622.992188 L 345.773438 623.292969 L 345.871094 623.394531 L 345.972656 623.492188 L 346.273438 623.792969 L 346.371094 623.894531 L 346.472656 623.992188 L 346.773438 624.292969 L 346.871094 624.394531 L 346.972656 624.492188 L 347.273438 624.792969 L 347.371094 624.894531 L 347.472656 624.992188 L 347.773438 625.292969 L 347.871094 625.394531 L 347.972656 625.492188 L 348.273438 625.792969 L 348.371094 625.894531 L 348.472656 625.992188 L 348.773438 626.292969 L 348.871094 626.394531 L 348.972656 626.492188 L 349.273438 626.792969 L 349.371094 626.894531 L 349.472656 626.992188 L 349.773438 627.292969 L 349.871094 627.394531 L 349.972656 627.492188 L 350.273438 627.792969 L 350.371094 627.894531 L 350.472656 627.992188 L 350.773438 628.292969 L 350.871094 628.394531 L 350.972656 628.492188 L 351.273438 628.792969 L 351.371094 628.894531 L 351.472656 628.992188 L 351.773438 629.292969 L 351.871094 629.394531 L 351.972656 629.492188 L 352.273438 629.792969 L 352.371094 629.894531 L 352.472656 629.992188 L 352.773438 630.292969 L 352.871094 630.394531 L 352.972656 630.492188 L 353.273438 630.792969 L 353.371094 630.894531 L 353.472656 630.992188 L 353.773438 631.292969 L 353.871094 631.394531 L 353.972656 631.492188 L 354.273438 631.792969 L 354.371094 631.894531 L 354.472656 631.992188 L 354.773438 632.292969 L 354.871094 632.394531 L 354.972656 632.492188 L 355.273438 632.792969 L 355.371094 632.894531 L 355.472656 632.992188 L 355.773438 633.292969 L 355.871094 633.394531 L 355.972656 633.492188 L 356.273438 633.792969 L 356.371094 633.894531 L 356.472656 633.992188 L 356.574219 634.09375 C 356.703125 634.21875 356.820312 634.359375 356.902344 634.523438 C 357.183594 635.074219 357.125 635.738281 356.757812 636.234375 L 339.425781 659.71875 L 370.824219 659.71875 C 379.324219 659.71875 386.234375 652.804688 386.234375 644.308594 L 386.234375 498.375 C 386.234375 498.375 386.234375 492.835938 386.234375 485.734375 C 386.234375 479.882812 386.234375 472.96875 386.234375 467.195312 L 361.195312 467.195312 C 357.058594 467.195312 353.3125 465.5 350.609375 462.769531 L 350.410156 462.570312 L 350.308594 462.472656 L 350.210938 462.371094 L 347.910156 460.070312 L 347.808594 459.972656 L 347.710938 459.871094 L 346.910156 459.070312 L 346.808594 458.972656 L 346.710938 458.871094 L 344.410156 456.570312 L 344.308594 456.472656 L 344.210938 456.371094 L 343.410156 455.570312 L 343.308594 455.472656 L 343.210938 455.371094 L 340.910156 453.070312 L 340.808594 452.972656 L 340.710938 452.871094 L 338.710938 450.871094 C 335.980469 448.167969 334.285156 444.421875 334.285156 440.285156 L 334.285156 412.644531 L 221.441406 412.644531 C 212.945312 412.644531 206.03125 419.554688 206.03125 428.050781 L 206.03125 433.050781 L 241.21875 433.050781 C 250.914062 433.050781 259.695312 436.992188 266.035156 443.359375 L 277.9375 455.261719 C 284.304688 461.605469 288.25 470.382812 288.25 480.082031 L 288.25 518.5625 C 288.25 537.910156 272.566406 553.59375 253.21875 553.59375 L 199.730469 553.59375 L 199.730469 553.597656 L 199.832031 553.597656 L 199.832031 553.699219 L 199.933594 553.699219 L 199.933594 553.796875 L 200.03125 553.796875 L 200.03125 553.898438 L 200.132812 553.898438 L 200.132812 553.996094 L 200.230469 553.996094 L 200.230469 554.097656 L 200.332031 554.097656 L 200.332031 554.199219 L 200.433594 554.199219 L 200.433594 554.296875 L 200.53125 554.296875 L 200.53125 554.398438 L 200.632812 554.398438 L 200.632812 554.496094 L 200.730469 554.496094 L 200.730469 554.597656 L 200.832031 554.597656 L 200.832031 554.699219 L 200.933594 554.699219 L 200.933594 554.796875 L 201.03125 554.796875 L 201.03125 554.898438 L 201.132812 554.898438 L 201.132812 554.996094 L 201.230469 554.996094 L 201.230469 555.097656 L 201.332031 555.097656 L 201.332031 555.199219 L 201.433594 555.199219 L 201.433594 555.296875 L 201.53125 555.296875 L 201.53125 555.398438 L 201.632812 555.398438 L 201.632812 555.496094 L 201.730469 555.496094 L 201.730469 555.597656 L 201.832031 555.597656 L 201.832031 555.699219 L 201.933594 555.699219 L 201.933594 555.796875 L 202.03125 555.796875 L 202.03125 555.898438 L 202.132812 555.898438 L 202.132812 555.996094 L 202.230469 555.996094 L 202.230469 556.097656 L 202.332031 556.097656 L 202.332031 556.199219 L 202.433594 556.199219 L 202.433594 556.296875 L 202.53125 556.296875 L 202.53125 556.398438 L 202.632812 556.398438 L 202.632812 556.496094 L 202.730469 556.496094 L 202.730469 556.597656 L 202.832031 556.597656 L 202.832031 556.699219 L 202.933594 556.699219 L 202.933594 556.796875 L 203.03125 556.796875 L 203.03125 556.898438 L 203.132812 556.898438 L 203.132812 556.996094 L 203.230469 556.996094 L 203.230469 557.097656 L 203.332031 557.097656 L 203.332031 557.199219 L 203.433594 557.199219 L 203.433594 557.296875 L 203.53125 557.296875 L 203.53125 557.398438 L 203.632812 557.398438 L 203.632812 557.496094 L 203.730469 557.496094 L 203.730469 557.597656 L 203.832031 557.597656 L 203.832031 557.699219 L 203.933594 557.699219 L 203.933594 557.796875 L 204.03125 557.796875 L 204.03125 557.898438 L 204.132812 557.898438 L 204.132812 557.996094 L 204.230469 557.996094 L 204.230469 558.097656 L 204.332031 558.097656 L 204.332031 558.199219 L 204.433594 558.199219 L 204.433594 558.296875 L 204.53125 558.296875 L 204.53125 558.398438 L 204.632812 558.398438 L 204.632812 558.496094 L 204.730469 558.496094 L 204.730469 558.597656 L 204.832031 558.597656 L 204.832031 558.699219 L 204.933594 558.699219 L 204.933594 558.796875 L 205.03125 558.796875 L 205.03125 558.898438 L 205.132812 558.898438 L 205.132812 558.996094 L 205.230469 558.996094 L 205.230469 559.097656 L 205.332031 559.097656 L 205.332031 559.199219 L 205.433594 559.199219 L 205.433594 559.296875 L 205.53125 559.296875 L 205.53125 559.398438 L 205.632812 559.398438 L 205.632812 559.496094 L 205.730469 559.496094 L 205.730469 559.597656 L 205.832031 559.597656 L 205.832031 559.699219 L 205.933594 559.699219 L 205.933594 559.796875 L 206.03125 559.796875 L 206.03125 656.308594 C 206.03125 657.367188 206.140625 658.402344 206.34375 659.40625 C 207.34375 659.609375 208.382812 659.71875 209.441406 659.71875 L 253.984375 659.71875 L 254.058594 659.816406 L 254.085938 659.816406 L 254.160156 659.917969 L 254.1875 659.917969 L 254.261719 660.019531 L 254.285156 660.019531 L 254.359375 660.117188 L 254.386719 660.117188 L 254.460938 660.21875 L 254.484375 660.21875 L 254.558594 660.316406 L 254.585938 660.316406 L 254.660156 660.417969 L 254.6875 660.417969 L 254.761719 660.519531 L 254.785156 660.519531 L 254.859375 660.617188 L 254.886719 660.617188 L 254.960938 660.71875 L 254.984375 660.71875 L 255.058594 660.816406 L 255.085938 660.816406 L 255.160156 660.917969 L 255.1875 660.917969 L 255.261719 661.015625 L 255.285156 661.015625 L 255.359375 661.117188 L 255.386719 661.117188 L 255.460938 661.21875 L 255.484375 661.21875 L 255.558594 661.316406 L 255.585938 661.316406 L 255.660156 661.417969 L 255.6875 661.417969 L 255.761719 661.519531 L 255.785156 661.519531 L 255.859375 661.617188 L 255.886719 661.617188 L 255.960938 661.71875 L 255.984375 661.71875 L 256.058594 661.816406 L 256.085938 661.816406 L 256.160156 661.917969 L 256.1875 661.917969 L 256.261719 662.015625 L 256.285156 662.015625 L 256.359375 662.117188 L 256.386719 662.117188 L 256.460938 662.21875 L 256.484375 662.21875 L 256.558594 662.316406 L 256.585938 662.316406 L 256.660156 662.417969 L 256.6875 662.417969 L 256.761719 662.519531 L 256.785156 662.519531 L 256.859375 662.617188 L 256.886719 662.617188 L 256.960938 662.71875 L 256.984375 662.71875 L 257.058594 662.816406 L 257.085938 662.816406 L 257.160156 662.917969 L 257.1875 662.917969 L 257.261719 663.015625 L 257.285156 663.015625 L 257.359375 663.117188 L 257.386719 663.117188 L 257.460938 663.21875 L 257.484375 663.21875 L 257.558594 663.316406 L 257.585938 663.316406 L 257.660156 663.417969 L 257.6875 663.417969 L 257.761719 663.519531 L 257.785156 663.519531 L 257.859375 663.617188 L 257.886719 663.617188 L 257.960938 663.71875 L 257.984375 663.71875 L 258.058594 663.816406 L 258.085938 663.816406 L 258.160156 663.917969 L 258.1875 663.917969 L 258.261719 664.019531 L 258.285156 664.019531 L 258.359375 664.117188 L 258.386719 664.117188 L 258.460938 664.21875 L 258.484375 664.21875 L 258.558594 664.316406 L 258.585938 664.316406 L 258.660156 664.417969 L 258.6875 664.417969 L 258.761719 664.515625 L 258.785156 664.515625 L 258.859375 664.617188 L 258.886719 664.617188 L 258.960938 664.71875 L 258.984375 664.71875 L 259.058594 664.816406 L 259.085938 664.816406 L 259.160156 664.917969 L 259.1875 664.917969 L 259.261719 665.019531 L 259.285156 665.019531 L 259.359375 665.117188 L 259.386719 665.117188 L 259.460938 665.21875 L 259.484375 665.21875 L 259.558594 665.316406 L 259.585938 665.316406 L 259.660156 665.417969 L 259.6875 665.417969 L 259.761719 665.515625 L 259.785156 665.515625 L 259.859375 665.617188 L 259.886719 665.617188 L 259.960938 665.71875 L 259.984375 665.71875 L 260.058594 665.816406 L 260.085938 665.816406 L 260.160156 665.917969 L 260.1875 665.917969 L 260.261719 666.019531 L 260.285156 666.019531 L 260.359375 666.117188 L 260.386719 666.117188 L 260.460938 666.21875 L 260.484375 666.21875 L 260.558594 666.316406 L 260.585938 666.316406 L 260.660156 666.417969 L 260.6875 666.417969 L 260.761719 666.515625 L 260.785156 666.515625 L 260.859375 666.617188 L 260.886719 666.617188 L 260.960938 666.71875 L 260.984375 666.71875 L 261.058594 666.816406 L 261.085938 666.816406 L 261.160156 666.917969 L 261.1875 666.917969 L 261.261719 667.019531 L 261.285156 667.019531 L 261.359375 667.117188 L 261.386719 667.117188 L 261.460938 667.21875 L 261.484375 667.21875 L 261.558594 667.316406 L 261.585938 667.316406 L 261.660156 667.417969 L 261.6875 667.417969 L 261.761719 667.519531 L 261.785156 667.519531 L 261.859375 667.617188 L 261.886719 667.617188 L 261.960938 667.71875 L 261.984375 667.71875 L 262.058594 667.816406 L 262.085938 667.816406 L 262.160156 667.917969 L 262.1875 667.917969 L 262.261719 668.015625 L 262.285156 668.015625 L 262.359375 668.117188 L 262.386719 668.117188 L 262.460938 668.21875 L 262.484375 668.21875 L 262.558594 668.316406 L 262.585938 668.316406 L 262.660156 668.417969 L 262.6875 668.417969 L 262.761719 668.519531 L 262.785156 668.519531 L 262.859375 668.617188 L 262.886719 668.617188 L 262.960938 668.71875 L 262.984375 668.71875 L 263.058594 668.816406 L 263.085938 668.816406 L 263.160156 668.917969 L 263.1875 668.917969 L 263.261719 669.015625 L 263.285156 669.015625 L 263.359375 669.117188 L 263.386719 669.117188 L 263.460938 669.21875 L 263.484375 669.21875 L 263.558594 669.316406 L 263.585938 669.316406 L 263.660156 669.417969 L 263.6875 669.417969 L 263.761719 669.519531 L 263.785156 669.519531 L 263.859375 669.617188 L 263.886719 669.617188 L 263.960938 669.71875 L 263.984375 669.71875 L 264.058594 669.816406 L 264.085938 669.816406 L 264.160156 669.917969 L 264.1875 669.917969 L 264.261719 670.015625 L 264.285156 670.015625 L 264.359375 670.117188 L 264.386719 670.117188 L 264.460938 670.21875 L 264.484375 670.21875 L 264.558594 670.316406 L 264.585938 670.316406 L 264.660156 670.417969 L 264.6875 670.417969 L 264.761719 670.519531 L 264.785156 670.519531 L 264.859375 670.617188 L 264.886719 670.617188 L 264.960938 670.71875 L 264.984375 670.71875 L 265.058594 670.816406 L 265.085938 670.816406 L 265.160156 670.917969 L 265.1875 670.917969 L 265.261719 671.019531 L 265.285156 671.019531 L 265.359375 671.117188 L 265.386719 671.117188 L 265.460938 671.21875 L 265.484375 671.21875 L 265.558594 671.316406 L 265.585938 671.316406 L 265.660156 671.417969 L 265.6875 671.417969 L 265.761719 671.515625 L 265.785156 671.515625 L 265.859375 671.617188 L 265.886719 671.617188 L 265.960938 671.71875 L 265.984375 671.71875 L 276.144531 685.480469 L 221.441406 685.480469 C 213.371094 685.480469 206.058594 682.1875 200.773438 676.878906 L 200.671875 676.777344 L 200.574219 676.675781 L 200.472656 676.574219 L 200.371094 676.476562 L 200.171875 676.277344 L 200.074219 676.175781 L 199.972656 676.074219 L 199.871094 675.976562 L 199.671875 675.777344 L 199.574219 675.675781 L 199.472656 675.574219 L 199.371094 675.476562 L 199.171875 675.277344 L 199.074219 675.175781 L 198.972656 675.074219 L 198.871094 674.976562 L 198.574219 674.679688 L 198.472656 674.574219 L 198.371094 674.476562 L 198.171875 674.277344 L 198.074219 674.175781 L 197.972656 674.074219 L 197.871094 673.976562 L 197.671875 673.777344 L 197.574219 673.675781 L 197.472656 673.574219 L 197.371094 673.476562 L 197.171875 673.277344 L 197.074219 673.175781 L 196.972656 673.074219 L 196.871094 672.976562 L 196.671875 672.777344 L 196.574219 672.675781 L 196.472656 672.574219 L 196.371094 672.476562 L 196.171875 672.277344 L 196.074219 672.175781 L 195.972656 672.074219 L 195.871094 671.976562 L 195.671875 671.777344 L 195.574219 671.675781 L 195.472656 671.574219 L 195.371094 671.476562 L 195.074219 671.179688 L 194.972656 671.074219 L 194.871094 670.976562 L 194.671875 670.777344 L 194.574219 670.675781 L 194.472656 670.574219 L 194.371094 670.476562 L 194.171875 670.277344 L 194.074219 670.175781 L 193.972656 670.074219 L 193.871094 669.976562 L 193.671875 669.777344 L 193.574219 669.675781 L 193.472656 669.574219 L 193.371094 669.476562 L 193.171875 669.277344 L 193.074219 669.175781 L 192.972656 669.074219 L 192.871094 668.976562 L 192.574219 668.679688 L 192.472656 668.574219 L 192.371094 668.476562 L 192.171875 668.277344 L 192.074219 668.175781 L 191.972656 668.074219 L 191.871094 667.976562 L 191.574219 667.679688 L 191.472656 667.574219 L 191.371094 667.476562 L 191.171875 667.277344 L 191.074219 667.175781 L 190.972656 667.074219 L 190.871094 666.976562 L 190.671875 666.777344 L 190.574219 666.675781 L 190.472656 666.574219 L 190.371094 666.476562 L 190.171875 666.277344 L 190.074219 666.175781 L 189.972656 666.074219 L 189.871094 665.976562 L 189.671875 665.777344 L 189.574219 665.675781 L 189.472656 665.574219 L 189.371094 665.476562 L 189.074219 665.179688 L 188.972656 665.074219 L 188.871094 664.976562 C 183.5625 659.691406 180.269531 652.378906 180.269531 644.308594 L 180.269531 553.59375 L 147.03125 553.59375 C 137.332031 553.59375 128.554688 549.648438 122.210938 543.28125 L 122.113281 543.179688 L 122.011719 543.082031 L 121.914062 542.980469 L 121.8125 542.878906 L 121.710938 542.78125 L 121.613281 542.679688 L 121.511719 542.582031 L 121.414062 542.480469 L 121.3125 542.378906 L 121.210938 542.28125 L 121.113281 542.179688 L 121.011719 542.082031 L 120.914062 541.980469 L 120.8125 541.878906 L 120.710938 541.78125 L 120.613281 541.679688 L 120.511719 541.582031 L 120.414062 541.480469 L 120.3125 541.378906 L 120.210938 541.28125 L 120.113281 541.179688 L 120.011719 541.082031 L 119.914062 540.980469 L 119.8125 540.878906 L 119.710938 540.78125 L 119.613281 540.679688 L 119.511719 540.582031 L 119.414062 540.480469 L 119.3125 540.378906 L 119.210938 540.28125 L 119.113281 540.179688 L 119.011719 540.082031 L 118.914062 539.980469 L 118.8125 539.878906 L 118.710938 539.78125 L 118.613281 539.679688 L 118.511719 539.582031 L 118.414062 539.480469 L 118.3125 539.378906 L 118.210938 539.28125 L 118.113281 539.179688 L 118.011719 539.082031 L 117.914062 538.980469 L 117.8125 538.878906 L 117.710938 538.78125 L 117.613281 538.679688 L 117.511719 538.582031 L 117.414062 538.480469 L 117.3125 538.378906 L 117.210938 538.28125 L 117.113281 538.179688 L 117.011719 538.082031 L 116.914062 537.980469 L 116.8125 537.878906 L 116.710938 537.78125 L 116.613281 537.679688 L 116.511719 537.582031 L 116.414062 537.480469 L 116.3125 537.378906 L 116.210938 537.28125 L 116.113281 537.179688 L 116.011719 537.082031 L 115.914062 536.980469 L 115.8125 536.878906 L 115.710938 536.78125 L 115.613281 536.679688 L 115.511719 536.582031 L 115.414062 536.480469 L 115.3125 536.378906 L 115.210938 536.28125 L 115.113281 536.179688 L 115.011719 536.082031 L 114.914062 535.980469 L 114.8125 535.878906 L 114.710938 535.78125 L 114.613281 535.679688 L 114.511719 535.582031 L 114.414062 535.480469 L 114.3125 535.378906 L 114.210938 535.28125 L 114.113281 535.179688 L 114.011719 535.082031 L 113.914062 534.980469 L 113.8125 534.878906 L 113.710938 534.78125 L 113.613281 534.679688 L 113.511719 534.582031 L 113.414062 534.480469 L 113.3125 534.378906 L 113.210938 534.28125 L 113.113281 534.179688 L 113.011719 534.082031 L 112.914062 533.980469 L 112.8125 533.878906 L 112.710938 533.78125 L 112.613281 533.679688 L 112.511719 533.582031 L 112.414062 533.480469 L 112.3125 533.378906 L 112.210938 533.28125 L 112.113281 533.179688 L 112.011719 533.082031 L 111.914062 532.980469 L 111.8125 532.878906 L 111.710938 532.78125 L 111.613281 532.679688 L 111.511719 532.582031 L 111.414062 532.480469 L 111.3125 532.378906 L 111.210938 532.28125 L 111.113281 532.179688 L 111.011719 532.082031 L 110.914062 531.980469 L 110.8125 531.878906 L 110.710938 531.78125 L 110.613281 531.679688 L 110.511719 531.582031 L 110.414062 531.480469 L 110.3125 531.378906 C 103.941406 525.035156 100 516.261719 100 506.5625 L 100 468.082031 C 100 448.734375 115.683594 433.050781 135.03125 433.050781 L 186.566406 433.050781 L 186.566406 433.042969 L 186.46875 433.042969 L 186.46875 432.945312 L 186.367188 432.945312 L 186.367188 432.84375 L 186.269531 432.84375 L 186.269531 432.742188 L 186.167969 432.742188 L 186.167969 432.644531 L 186.066406 432.644531 L 186.066406 432.542969 L 185.96875 432.542969 L 185.96875 432.445312 L 185.867188 432.445312 L 185.867188 432.34375 L 185.769531 432.34375 L 185.769531 432.242188 L 185.667969 432.242188 L 185.667969 432.144531 L 185.566406 432.144531 L 185.566406 432.042969 L 185.46875 432.042969 L 185.46875 431.945312 L 185.367188 431.945312 L 185.367188 431.84375 L 185.269531 431.84375 L 185.269531 431.742188 L 185.167969 431.742188 L 185.167969 431.644531 L 185.066406 431.644531 L 185.066406 431.542969 L 184.96875 431.542969 L 184.96875 431.445312 L 184.867188 431.445312 L 184.867188 431.34375 L 184.769531 431.34375 L 184.769531 431.242188 L 184.667969 431.242188 L 184.667969 431.144531 L 184.566406 431.144531 L 184.566406 431.042969 L 184.46875 431.042969 L 184.46875 430.945312 L 184.367188 430.945312 L 184.367188 430.84375 L 184.269531 430.84375 L 184.269531 430.742188 L 184.167969 430.742188 L 184.167969 430.644531 L 184.066406 430.644531 L 184.066406 430.542969 L 183.96875 430.542969 L 183.96875 430.445312 L 183.867188 430.445312 L 183.867188 430.34375 L 183.769531 430.34375 L 183.769531 430.242188 L 183.667969 430.242188 L 183.667969 430.144531 L 183.566406 430.144531 L 183.566406 430.042969 L 183.46875 430.042969 L 183.46875 429.945312 L 183.367188 429.945312 L 183.367188 429.84375 L 183.269531 429.84375 L 183.269531 429.742188 L 183.167969 429.742188 L 183.167969 429.644531 L 183.066406 429.644531 L 183.066406 429.542969 L 182.96875 429.542969 L 182.96875 429.445312 L 182.867188 429.445312 L 182.867188 429.34375 L 182.769531 429.34375 L 182.769531 429.242188 L 182.667969 429.242188 L 182.667969 429.144531 L 182.566406 429.144531 L 182.566406 429.042969 L 182.46875 429.042969 L 182.46875 428.945312 L 182.367188 428.945312 L 182.367188 428.84375 L 182.269531 428.84375 L 182.269531 428.742188 L 182.167969 428.742188 L 182.167969 428.644531 L 182.066406 428.644531 L 182.066406 428.542969 L 181.96875 428.542969 L 181.96875 428.445312 L 181.867188 428.445312 L 181.867188 428.34375 L 181.769531 428.34375 L 181.769531 428.242188 L 181.667969 428.242188 L 181.667969 428.144531 L 181.566406 428.144531 L 181.566406 428.042969 L 181.46875 428.042969 L 181.46875 427.945312 L 181.367188 427.945312 L 181.367188 427.84375 L 181.269531 427.84375 L 181.269531 427.742188 L 181.167969 427.742188 L 181.167969 427.644531 L 181.066406 427.644531 L 181.066406 427.542969 L 180.96875 427.542969 L 180.96875 427.445312 L 180.867188 427.445312 L 180.867188 427.34375 L 180.769531 427.34375 L 180.769531 427.242188 L 180.667969 427.242188 L 180.667969 427.144531 L 180.566406 427.144531 L 180.566406 427.042969 L 180.46875 427.042969 L 180.46875 426.945312 L 180.367188 426.945312 L 180.367188 426.84375 L 180.269531 426.84375 L 180.269531 416.050781 C 180.269531 399.964844 193.355469 386.878906 209.441406 386.878906 L 331.1875 386.878906 C 336.597656 386.878906 341.6875 388.984375 345.511719 392.8125 L 394.265625 441.566406 L 394.269531 441.566406 L 394.46875 441.765625 L 394.566406 441.867188 L 394.765625 442.066406 L 394.769531 442.066406 L 394.96875 442.265625 L 395.066406 442.367188 L 395.265625 442.566406 L 395.269531 442.566406 L 395.46875 442.765625 L 395.566406 442.867188 L 395.765625 443.066406 L 395.769531 443.066406 L 395.96875 443.265625 L 396.066406 443.367188 L 396.265625 443.566406 L 396.269531 443.566406 L 396.46875 443.765625 L 396.566406 443.867188 L 396.765625 444.066406 L 396.769531 444.066406 L 396.96875 444.265625 L 397.066406 444.367188 L 397.265625 444.566406 L 397.269531 444.566406 L 397.46875 444.765625 L 397.566406 444.867188 L 397.765625 445.066406 L 397.769531 445.066406 L 397.96875 445.265625 L 398.066406 445.367188 L 398.265625 445.566406 L 398.269531 445.566406 L 398.46875 445.765625 L 398.566406 445.867188 L 398.765625 446.066406 L 398.769531 446.066406 L 398.96875 446.265625 L 399.066406 446.367188 L 399.265625 446.566406 L 399.269531 446.566406 L 399.46875 446.765625 L 399.566406 446.867188 L 399.765625 447.066406 L 399.769531 447.066406 L 399.96875 447.265625 L 400.066406 447.367188 L 400.265625 447.566406 L 400.269531 447.566406 L 400.46875 447.765625 L 400.566406 447.867188 L 400.765625 448.066406 L 400.769531 448.066406 L 400.96875 448.265625 L 401.066406 448.367188 L 401.265625 448.566406 L 401.269531 448.566406 L 401.46875 448.765625 L 401.566406 448.867188 L 401.765625 449.066406 L 401.769531 449.066406 L 401.96875 449.265625 L 402.066406 449.367188 L 402.265625 449.566406 L 402.269531 449.566406 L 402.46875 449.765625 L 402.566406 449.867188 L 402.765625 450.066406 L 402.769531 450.066406 L 402.96875 450.265625 L 403.066406 450.367188 L 403.265625 450.566406 L 403.269531 450.566406 L 403.46875 450.765625 L 403.566406 450.867188 L 403.765625 451.066406 L 403.769531 451.066406 L 403.96875 451.265625 L 404.066406 451.367188 L 404.265625 451.566406 L 404.269531 451.566406 L 404.46875 451.765625 L 404.566406 451.867188 L 404.765625 452.066406 L 404.769531 452.066406 L 404.96875 452.265625 L 405.066406 452.367188 L 405.265625 452.566406 L 405.269531 452.566406 L 405.46875 452.765625 L 405.566406 452.867188 L 405.765625 453.066406 L 405.769531 453.066406 L 405.96875 453.265625 L 406.066406 453.367188 C 409.894531 457.191406 412 462.277344 412 467.691406 L 412 656.308594 C 412 672.394531 398.910156 685.480469 382.824219 685.480469 L 328.121094 685.480469 L 328.195312 685.382812 L 328.019531 685.382812 L 328.09375 685.28125 L 327.921875 685.28125 L 327.996094 685.183594 L 327.820312 685.183594 L 327.894531 685.082031 L 327.722656 685.082031 L 327.796875 684.980469 L 327.621094 684.980469 L 327.695312 684.882812 L 327.519531 684.882812 L 327.59375 684.78125 L 327.421875 684.78125 L 327.496094 684.683594 L 327.320312 684.683594 L 327.394531 684.582031 L 327.222656 684.582031 L 327.296875 684.480469 L 327.121094 684.480469 L 327.195312 684.382812 L 327.019531 684.382812 L 327.09375 684.28125 L 326.921875 684.28125 L 326.996094 684.183594 L 326.820312 684.183594 L 326.894531 684.082031 L 326.722656 684.082031 L 326.796875 683.980469 L 326.621094 683.980469 L 326.695312 683.882812 L 326.519531 683.882812 L 326.59375 683.78125 L 326.421875 683.78125 L 326.496094 683.683594 L 326.320312 683.683594 L 326.394531 683.582031 L 326.222656 683.582031 L 326.296875 683.480469 L 326.121094 683.480469 L 326.195312 683.382812 L 326.019531 683.382812 L 326.09375 683.28125 L 325.921875 683.28125 L 325.996094 683.183594 L 325.820312 683.183594 L 325.894531 683.082031 L 325.722656 683.082031 L 325.796875 682.980469 L 325.621094 682.980469 L 325.695312 682.882812 L 325.519531 682.882812 L 325.59375 682.78125 L 325.421875 682.78125 L 325.496094 682.683594 L 325.320312 682.683594 L 325.394531 682.582031 L 325.222656 682.582031 L 325.296875 682.480469 L 325.121094 682.480469 L 325.195312 682.382812 L 325.019531 682.382812 L 325.09375 682.28125 L 324.921875 682.28125 L 324.996094 682.183594 L 324.820312 682.183594 L 324.894531 682.082031 L 324.722656 682.082031 L 324.796875 681.980469 L 324.621094 681.980469 L 324.695312 681.882812 L 324.519531 681.882812 L 324.59375 681.78125 L 324.421875 681.78125 L 324.496094 681.683594 L 324.320312 681.683594 L 324.394531 681.582031 L 324.222656 681.582031 L 324.296875 681.480469 L 324.121094 681.480469 L 324.195312 681.382812 L 324.019531 681.382812 L 324.09375 681.28125 L 323.921875 681.28125 L 323.996094 681.183594 L 323.820312 681.183594 L 323.894531 681.082031 L 323.722656 681.082031 L 323.796875 680.980469 L 323.730469 680.980469 L 303.449219 708.457031 C 303.144531 708.875 302.652344 709.121094 302.132812 709.121094 M 183.421875 512.632812 L 183.421875 517.742188 C 185.019531 517.695312 186.558594 517.542969 188.03125 517.292969 L 188.03125 517.230469 L 187.929688 517.214844 L 187.929688 517.132812 L 187.832031 517.117188 L 187.832031 517.03125 L 187.730469 517.015625 L 187.730469 516.933594 L 187.632812 516.914062 L 187.632812 516.832031 L 187.53125 516.816406 L 187.53125 516.730469 L 187.429688 516.714844 L 187.429688 516.632812 L 187.332031 516.617188 L 187.332031 516.53125 L 187.230469 516.515625 L 187.230469 516.433594 L 187.132812 516.414062 L 187.132812 516.332031 L 187.03125 516.316406 L 187.03125 516.230469 L 186.929688 516.214844 L 186.929688 516.132812 L 186.832031 516.117188 L 186.832031 516.03125 L 186.730469 516.015625 L 186.730469 515.933594 L 186.632812 515.914062 L 186.632812 515.832031 L 186.53125 515.816406 L 186.53125 515.730469 L 186.429688 515.714844 L 186.429688 515.632812 L 186.332031 515.617188 L 186.332031 515.53125 L 186.230469 515.515625 L 186.230469 515.433594 L 186.132812 515.414062 L 186.132812 515.332031 L 186.03125 515.316406 L 186.03125 515.230469 L 185.929688 515.214844 L 185.929688 515.132812 L 185.832031 515.117188 L 185.832031 515.03125 L 185.730469 515.015625 L 185.730469 514.933594 L 185.632812 514.914062 L 185.632812 514.832031 L 185.53125 514.816406 L 185.53125 514.730469 L 185.429688 514.714844 L 185.429688 514.632812 L 185.332031 514.617188 L 185.332031 514.53125 L 185.230469 514.515625 L 185.230469 514.433594 L 185.132812 514.414062 L 185.132812 514.332031 L 185.03125 514.316406 L 185.03125 514.230469 L 184.929688 514.214844 L 184.929688 514.132812 L 184.832031 514.117188 L 184.832031 514.03125 L 184.730469 514.015625 L 184.730469 513.933594 L 184.632812 513.914062 L 184.632812 513.832031 L 184.53125 513.816406 L 184.53125 513.730469 L 184.429688 513.714844 L 184.429688 513.632812 L 184.332031 513.617188 L 184.332031 513.53125 L 184.230469 513.515625 L 184.230469 513.433594 L 184.132812 513.414062 L 184.132812 513.332031 L 184.03125 513.316406 L 184.03125 513.230469 L 183.929688 513.214844 L 183.929688 513.132812 L 183.832031 513.117188 L 183.832031 513.03125 L 183.730469 513.015625 L 183.730469 512.933594 L 183.632812 512.914062 L 183.632812 512.832031 L 183.53125 512.816406 L 183.53125 512.730469 L 183.429688 512.714844 L 183.429688 512.632812 L 183.421875 512.632812 M 143.570312 489.699219 L 143.570312 494.726562 C 145.140625 494.71875 146.644531 494.535156 148.085938 494.203125 L 148.015625 494.183594 L 148.015625 494.109375 L 147.917969 494.082031 L 147.917969 494.011719 L 147.816406 493.984375 L 147.816406 493.910156 L 147.71875 493.882812 L 147.71875 493.8125 L 147.617188 493.78125 L 147.617188 493.710938 L 147.515625 493.683594 L 147.515625 493.609375 L 147.417969 493.582031 L 147.417969 493.511719 L 147.316406 493.484375 L 147.316406 493.410156 L 147.21875 493.382812 L 147.21875 493.3125 L 147.117188 493.28125 L 147.117188 493.210938 L 147.015625 493.183594 L 147.015625 493.109375 L 146.917969 493.082031 L 146.917969 493.011719 L 146.816406 492.984375 L 146.816406 492.910156 L 146.71875 492.882812 L 146.71875 492.8125 L 146.617188 492.78125 L 146.617188 492.710938 L 146.515625 492.683594 L 146.515625 492.609375 L 146.417969 492.582031 L 146.417969 492.511719 L 146.316406 492.484375 L 146.316406 492.410156 L 146.21875 492.382812 L 146.21875 492.3125 L 146.117188 492.28125 L 146.117188 492.210938 L 146.015625 492.183594 L 146.015625 492.109375 L 145.917969 492.082031 L 145.917969 492.011719 L 145.816406 491.984375 L 145.816406 491.910156 L 145.71875 491.882812 L 145.71875 491.8125 L 145.617188 491.78125 L 145.617188 491.710938 L 145.515625 491.683594 L 145.515625 491.609375 L 145.417969 491.582031 L 145.417969 491.511719 L 145.316406 491.484375 L 145.316406 491.410156 L 145.21875 491.382812 L 145.21875 491.3125 L 145.117188 491.28125 L 145.117188 491.210938 L 145.015625 491.183594 L 145.015625 491.109375 L 144.917969 491.082031 L 144.917969 491.011719 L 144.816406 490.984375 L 144.816406 490.910156 L 144.71875 490.882812 L 144.71875 490.8125 L 144.617188 490.78125 L 144.617188 490.710938 L 144.515625 490.683594 L 144.515625 490.609375 L 144.417969 490.582031 L 144.417969 490.511719 L 144.316406 490.484375 L 144.316406 490.410156 L 144.21875 490.382812 L 144.21875 490.3125 L 144.117188 490.28125 L 144.117188 490.210938 L 144.015625 490.183594 L 144.015625 490.109375 L 143.917969 490.082031 L 143.917969 490.011719 L 143.816406 489.984375 L 143.816406 489.910156 L 143.71875 489.882812 L 143.71875 489.8125 L 143.617188 489.78125 L 143.617188 489.710938 L 143.570312 489.699219 M 231.34375 486.355469 L 231.34375 491.507812 L 236.453125 491.507812 L 236.453125 491.457031 L 236.355469 491.457031 L 236.355469 491.355469 L 236.253906 491.355469 L 236.253906 491.257812 L 236.152344 491.257812 L 236.152344 491.15625 L 236.054688 491.15625 L 236.054688 491.058594 L 235.953125 491.058594 L 235.953125 490.957031 L 235.855469 490.957031 L 235.855469 490.855469 L 235.753906 490.855469 L 235.753906 490.757812 L 235.652344 490.757812 L 235.652344 490.65625 L 235.554688 490.65625 L 235.554688 490.558594 L 235.453125 490.558594 L 235.453125 490.457031 L 235.355469 490.457031 L 235.355469 490.355469 L 235.253906 490.355469 L 235.253906 490.257812 L 235.152344 490.257812 L 235.152344 490.15625 L 235.054688 490.15625 L 235.054688 490.058594 L 234.953125 490.058594 L 234.953125 489.957031 L 234.855469 489.957031 L 234.855469 489.855469 L 234.753906 489.855469 L 234.753906 489.757812 L 234.652344 489.757812 L 234.652344 489.65625 L 234.554688 489.65625 L 234.554688 489.558594 L 234.453125 489.558594 L 234.453125 489.457031 L 234.355469 489.457031 L 234.355469 489.355469 L 234.253906 489.355469 L 234.253906 489.257812 L 234.152344 489.257812 L 234.152344 489.15625 L 234.054688 489.15625 L 234.054688 489.058594 L 233.953125 489.058594 L 233.953125 488.957031 L 233.855469 488.957031 L 233.855469 488.855469 L 233.753906 488.855469 L 233.753906 488.757812 L 233.652344 488.757812 L 233.652344 488.65625 L 233.554688 488.65625 L 233.554688 488.558594 L 233.453125 488.558594 L 233.453125 488.457031 L 233.355469 488.457031 L 233.355469 488.355469 L 233.253906 488.355469 L 233.253906 488.257812 L 233.152344 488.257812 L 233.152344 488.15625 L 233.054688 488.15625 L 233.054688 488.058594 L 232.953125 488.058594 L 232.953125 487.957031 L 232.855469 487.957031 L 232.855469 487.855469 L 232.753906 487.855469 L 232.753906 487.757812 L 232.652344 487.757812 L 232.652344 487.65625 L 232.554688 487.65625 L 232.554688 487.558594 L 232.453125 487.558594 L 232.453125 487.457031 L 232.355469 487.457031 L 232.355469 487.355469 L 232.253906 487.355469 L 232.253906 487.257812 L 232.152344 487.257812 L 232.152344 487.15625 L 232.054688 487.15625 L 232.054688 487.058594 L 231.953125 487.058594 L 231.953125 486.957031 L 231.855469 486.957031 L 231.855469 486.855469 L 231.753906 486.855469 L 231.753906 486.757812 L 231.652344 486.757812 L 231.652344 486.65625 L 231.554688 486.65625 L 231.554688 486.558594 L 231.453125 486.558594 L 231.453125 486.457031 L 231.355469 486.457031 L 231.355469 486.355469 L 231.34375 486.355469 M 196.183594 468.289062 C 195.640625 468.289062 195.105469 468.296875 194.570312 468.308594 C 194.867188 468.570312 195.164062 468.839844 195.4375 469.132812 L 207.339844 481.035156 C 207.898438 481.617188 208.398438 482.277344 208.871094 482.980469 C 208.640625 477.765625 207.699219 473.421875 206.183594 469.847656 C 203.351562 468.8125 200.054688 468.289062 196.183594 468.289062 M 155.816406 468.289062 C 154.351562 468.289062 153 468.328125 151.738281 468.402344 L 153.066406 469.730469 L 153.164062 469.832031 L 153.265625 469.929688 L 154.066406 470.730469 L 154.164062 470.832031 L 154.265625 470.929688 L 155.066406 471.730469 L 155.164062 471.832031 L 155.265625 471.929688 L 156.566406 473.230469 L 156.664062 473.332031 L 156.765625 473.429688 L 157.566406 474.230469 L 157.664062 474.332031 L 157.765625 474.429688 L 158.566406 475.230469 L 158.664062 475.332031 L 158.765625 475.429688 L 160.066406 476.730469 L 160.164062 476.832031 L 160.265625 476.929688 L 160.929688 477.59375 C 161.015625 476.617188 161.074219 475.617188 161.074219 474.570312 C 161.074219 472.476562 160.839844 470.511719 160.414062 468.710938 C 159 468.441406 157.476562 468.289062 155.816406 468.289062 "/>
<path style=" stroke:none;fill-rule:nonzero;fill:rgb(100%,99.926758%,98.580933%);fill-opacity:1;" d="M 200.464844 485.863281 C 200.53125 472.507812 194.929688 464.890625 184.902344 464.890625 C 182.359375 464.890625 180.539062 465.160156 179.429688 465.519531 L 179.429688 508.714844 C 180.539062 508.984375 182.230469 508.984375 183.859375 508.984375 C 194.277344 509.074219 200.464844 501.1875 200.464844 485.863281 "/>
<path style=" stroke:none;fill-rule:nonzero;fill:rgb(100%,99.926758%,98.580933%);fill-opacity:1;" d="M 156.773438 461.214844 C 159.378906 464.175781 161.074219 468.925781 161.074219 474.570312 C 161.074219 480.304688 159.769531 485.054688 157.296875 488.28125 C 154.105469 492.671875 149.089844 494.734375 143.425781 494.734375 C 141.925781 494.734375 140.558594 494.644531 139.515625 494.378906 L 139.515625 517.140625 L 131.570312 517.140625 L 131.570312 457.542969 C 134.4375 456.824219 138.410156 456.289062 143.816406 456.289062 C 149.675781 456.289062 153.976562 457.988281 156.773438 461.214844 Z M 171.421875 457.542969 C 174.9375 456.734375 179.429688 456.289062 184.183594 456.289062 C 192.390625 456.289062 198.054688 458.617188 202.09375 463.277344 C 206.324219 468.027344 208.929688 475.195312 208.929688 485.503906 C 208.929688 496.257812 206.261719 504.324219 202.09375 509.523438 C 197.730469 514.988281 190.761719 517.769531 182.230469 517.769531 C 177.542969 517.769531 174.027344 517.410156 171.421875 516.960938 Z M 219.34375 456.734375 L 244.675781 456.734375 L 244.675781 465.785156 L 227.355469 465.785156 L 227.355469 482.457031 L 243.503906 482.457031 L 243.503906 491.507812 L 227.355469 491.507812 L 227.355469 517.140625 L 219.34375 517.140625 Z M 100 468.082031 L 100 506.5625 C 100 525.910156 115.683594 541.59375 135.03125 541.59375 L 241.21875 541.59375 C 260.566406 541.59375 276.25 525.910156 276.25 506.5625 L 276.25 468.082031 C 276.25 448.734375 260.566406 433.050781 241.21875 433.050781 L 135.03125 433.050781 C 115.683594 433.050781 100 448.734375 100 468.082031 "/>
<path style=" stroke:none;fill-rule:nonzero;fill:rgb(100%,99.926758%,98.580933%);fill-opacity:1;" d="M 153.0625 475.019531 C 153.0625 468.296875 149.675781 464.710938 144.140625 464.710938 C 141.925781 464.710938 140.363281 464.980469 139.515625 465.25 L 139.515625 485.683594 C 140.496094 486.042969 141.796875 486.132812 143.425781 486.132812 C 149.414062 486.132812 153.0625 482.097656 153.0625 475.019531 "/>
<path style=" stroke:none;fill-rule:nonzero;fill:rgb(100%,99.926758%,98.580933%);fill-opacity:1;" d="M 180.269531 547.796875 L 180.269531 644.308594 C 180.269531 660.394531 193.355469 673.480469 209.441406 673.480469 L 264.144531 673.480469 L 253.984375 659.71875 L 209.441406 659.71875 C 200.945312 659.71875 194.03125 652.804688 194.03125 644.308594 L 194.03125 547.796875 L 180.269531 547.796875 "/>
<path style=" stroke:none;fill-rule:nonzero;fill:rgb(100%,99.926758%,98.580933%);fill-opacity:1;" d="M 345.511719 392.8125 C 341.6875 388.984375 336.597656 386.878906 331.1875 386.878906 L 209.441406 386.878906 C 193.355469 386.878906 180.269531 399.964844 180.269531 416.050781 L 180.269531 426.84375 L 194.03125 426.84375 L 194.03125 416.050781 C 194.03125 407.554688 200.945312 400.644531 209.441406 400.644531 L 331.1875 400.644531 C 332.898438 400.644531 334.285156 402.03125 334.285156 403.742188 L 334.285156 440.285156 C 334.285156 448.507812 340.972656 455.195312 349.195312 455.195312 L 383.136719 455.195312 C 384.847656 455.195312 386.234375 456.582031 386.234375 458.292969 C 386.234375 463.964844 386.234375 476.246094 386.234375 485.734375 C 386.234375 492.835938 386.234375 498.375 386.234375 498.375 L 386.234375 644.308594 C 386.234375 652.804688 379.324219 659.71875 370.824219 659.71875 L 326.28125 659.71875 L 316.121094 673.480469 L 370.824219 673.480469 C 386.910156 673.480469 400 660.394531 400 644.308594 L 400 455.691406 C 400 450.277344 397.894531 445.191406 394.066406 441.367188 L 345.511719 392.8125 "/>
<path style=" stroke:none;fill-rule:nonzero;fill:rgb(100%,99.926758%,98.580933%);fill-opacity:1;" d="M 314.75 557.253906 L 265.519531 557.253906 C 264.613281 557.253906 263.882812 557.988281 263.882812 558.890625 L 263.882812 621.625 L 236.828125 621.625 C 236.207031 621.625 235.644531 621.972656 235.363281 622.523438 C 235.085938 623.074219 235.140625 623.738281 235.507812 624.234375 L 261.859375 659.933594 L 288.816406 696.457031 C 289.125 696.875 289.613281 697.121094 290.132812 697.121094 C 290.652344 697.121094 291.144531 696.875 291.449219 696.457031 L 318.410156 659.933594 L 344.757812 624.234375 C 345.125 623.738281 345.183594 623.074219 344.902344 622.523438 C 344.625 621.972656 344.058594 621.625 343.441406 621.625 L 316.386719 621.625 L 316.386719 558.890625 C 316.386719 557.988281 315.652344 557.253906 314.75 557.253906 "/>
</g>
</svg>
